<?xml version="1.0" encoding="UTF-8"?>
<svg version="1.1" xmlns="http://www.w3.org/2000/svg" width="854" height="1005">
<path d="M0 0 C4.19075475 -0.19491883 7.24079436 0.06669424 11 2 C11.33 2.66 11.66 3.32 12 4 C14.02463255 4.65213292 14.02463255 4.65213292 16 5 C16 5.66 16 6.32 16 7 C17.03060547 7.36544922 17.03060547 7.36544922 18.08203125 7.73828125 C21.51989739 9.22480168 24.56745242 11.13960721 27.6875 13.1875 C28.30181885 13.58606201 28.9161377 13.98462402 29.54907227 14.39526367 C34.04021239 17.32554086 38.42986172 20.38558354 42.80078125 23.4921875 C45.77174966 25.52912144 48.83630916 27.28060281 52 29 C52 29.66 52 30.32 52 31 C52.70125 31.2475 53.4025 31.495 54.125 31.75 C60.95698869 34.72042986 67.05727224 39.7845008 73.16601562 44.02148438 C79.13229018 48.79545159 79.13229018 48.79545159 86 51 C86 51.66 86 52.32 86 53 C86.66 53 87.32 53 88 53 C88.33 53.66 88.66 54.32 89 55 C89.99 55.33 90.98 55.66 92 56 C94.68755582 59.58050284 94.27041031 63.72232503 94.23377991 67.99865723 C94.23528244 69.21991529 94.23528244 69.21991529 94.23681533 70.46584523 C94.23776625 73.20454003 94.22439671 75.94298021 94.21118164 78.68164062 C94.20900275 80.65071219 94.20772433 82.61978493 94.20727634 84.58885765 C94.20437896 88.85567715 94.19512602 93.12242023 94.18104935 97.38921738 C94.15850944 104.23914106 94.14990938 111.08904047 94.14315796 117.93899536 C94.13219363 127.71660907 94.11495798 137.49419354 94.09347534 147.27178955 C94.04147911 171.23946722 94.02582905 195.20718738 94.01033998 219.17491198 C94.00780836 222.93583607 94.00493293 226.69675977 94.00198936 230.45768356 C93.97141007 270.88638873 94.0596308 311.31205609 94.40482712 351.73934937 C94.4375271 355.62822284 94.46783074 359.51710886 94.49758911 363.40600586 C94.54364061 369.3405243 94.5953782 375.27496003 94.65300369 381.20937729 C94.67308418 383.31305553 94.69181277 385.41674719 94.70905685 387.52045059 C94.73271059 390.30749361 94.76262455 393.09439043 94.79467773 395.88134766 C94.80043351 396.68853493 94.80618929 397.4957222 94.81211948 398.32736969 C94.78351036 402.29356155 94.78351036 402.29356155 96 406 C94.3125 407.625 94.3125 407.625 92 409 C88.09511688 407.83642372 85.09027724 405.81277277 81.8125 403.4375 C78.52121677 401.02799361 78.52121677 401.02799361 75 399 C75 398.34 75 397.68 75 397 C72.69 396.34 70.38 395.68 68 395 C68 394.34 68 393.68 68 393 C67.28328125 392.73703125 66.5665625 392.4740625 65.828125 392.203125 C62.90271039 390.9586116 60.41488709 389.47983899 57.75 387.75 C56.79609375 387.13382812 55.8421875 386.51765625 54.859375 385.8828125 C51.50844482 383.67632569 48.18117303 381.43705646 44.875 379.1640625 C42.90117995 377.83832586 42.90117995 377.83832586 40 377 C40 376.34 40 375.68 40 375 C39.2265625 374.62875 39.2265625 374.62875 38.4375 374.25 C32.27450812 371.08949134 26.73138822 367.46882204 21.13671875 363.390625 C19.1455227 361.81817568 19.1455227 361.81817568 17 362 C17 361.34 17 360.68 17 360 C16.443125 359.73445313 15.88625 359.46890625 15.3125 359.1953125 C8.63416365 355.74333459 2.42743661 351.3016644 -3.8125 347.125 C-8.35124816 344.08730188 -12.91208768 341.08768949 -17.5 338.125 C-18.3813562 337.55289795 -18.3813562 337.55289795 -19.28051758 336.96923828 C-22.11852768 335.14289772 -24.93852884 333.4256851 -28 332 C-28 331.34 -28 330.68 -28 330 C-28.70898438 329.74605469 -29.41796875 329.49210937 -30.1484375 329.23046875 C-33.26429161 327.88595636 -35.82743562 326.23158392 -38.625 324.3125 C-43.53011667 320.97992381 -48.4907589 317.77044846 -53.52734375 314.640625 C-56 313 -56 313 -58.50390625 310.984375 C-60.91663416 309.06627519 -63.33564015 307.54187491 -66 306 C-67.83806528 304.86177279 -69.6712989 303.71571179 -71.5 302.5625 C-72.4178125 301.98628906 -73.335625 301.41007812 -74.28125 300.81640625 C-77 299 -77 299 -79.48046875 296.98046875 C-82.14006365 294.88990345 -84.82631836 293.33303605 -87.8125 291.75 C-88.78832031 291.22921875 -89.76414063 290.7084375 -90.76953125 290.171875 C-91.50558594 289.78515625 -92.24164063 289.3984375 -93 289 C-93 288.34 -93 287.68 -93 287 C-94.423125 286.5359375 -94.423125 286.5359375 -95.875 286.0625 C-99 285 -99 285 -101 284 C-101 283.34 -101 282.68 -101 282 C-101.70125 281.731875 -102.4025 281.46375 -103.125 281.1875 C-106.1649824 279.9318551 -109.0727774 278.49764877 -112 277 C-112 276.34 -112 275.68 -112 275 C-114.16427488 273.87778339 -116.26940553 272.901437 -118.5625 272.0625 C-121.0970109 270.9577132 -122.07630986 269.92369014 -124 268 C-125.6682483 267.01867747 -127.33900621 266.04090122 -129.03125 265.1015625 C-137.96273764 260.10418251 -137.96273764 260.10418251 -140.9375 256.9375 C-143.09602846 254.90979145 -144.72380547 254.17832834 -147.4375 253.0625 C-151.52735781 251.37014504 -153.9848384 249.28120527 -157 246 C-157.99 245.67 -158.98 245.34 -160 245 C-160 244.34 -160 243.68 -160 243 C-160.54140625 242.89816406 -161.0828125 242.79632813 -161.640625 242.69140625 C-164.60596581 241.82242393 -167.05524946 240.44527709 -169.75 238.9375 C-170.73484375 238.38964844 -171.7196875 237.84179688 -172.734375 237.27734375 C-173.48203125 236.85582031 -174.2296875 236.43429688 -175 236 C-175 235.34 -175 234.68 -175 234 C-177.33214148 232.79371992 -179.49642139 231.8345262 -182 231 C-182.16679557 268.77862514 -182.32344156 306.55728815 -182.47266474 344.33598635 C-182.49080845 348.92934723 -182.50903755 353.52270776 -182.52733523 358.11606803 C-182.81859852 431.27962336 -183.04554708 504.44253153 -183.03168321 577.60673594 C-183.03125138 579.90669616 -183.03087133 582.20665637 -183.03050041 584.50661659 C-183.02556347 613.83653861 -183.01043304 643.16644675 -182.97678709 672.49635041 C-182.96438122 683.35262326 -182.9548998 694.20889554 -182.94738436 705.06517303 C-182.94189523 712.52964258 -182.93181778 719.99408662 -182.91801023 727.45854521 C-182.91063767 731.9666383 -182.90731055 736.47472744 -182.90515423 740.98282576 C-182.90330003 743.05553401 -182.89970675 745.12824154 -182.89426136 747.20094347 C-182.88710141 750.00254149 -182.88600053 752.80407684 -182.88647461 755.60568237 C-182.88287949 756.42233388 -182.87928437 757.23898538 -182.87558031 758.0803839 C-182.88156881 761.31897336 -182.96824817 763.90474452 -184 767 C-187.66881155 766.29445932 -190.70450534 764.72264494 -194 763 C-194 762.34 -194 761.68 -194 761 C-194.99 761.33 -195.98 761.66 -197 762 C-197 761.01 -197 760.02 -197 759 C-199.65228812 757.92474806 -202.28368454 756.90543849 -205 756 C-205.804375 755.13375 -205.804375 755.13375 -206.625 754.25 C-209.99088444 751.06126737 -213.90944659 749.13268169 -218 747 C-218 746.34 -218 745.68 -218 745 C-218.53367188 744.91878906 -219.06734375 744.83757813 -219.6171875 744.75390625 C-222.89293583 743.71748096 -225.31143672 741.89731619 -228.125 739.9375 C-231.74793807 737.05709631 -231.74793807 737.05709631 -236 736 C-236 735.34 -236 734.68 -236 734 C-236.721875 733.7525 -237.44375 733.505 -238.1875 733.25 C-241.29348296 731.86956313 -243.34321328 730.12542937 -246 728 C-252.22756275 723.9475644 -252.22756275 723.9475644 -259 721 C-259 720.34 -259 719.68 -259 719 C-259.78375 718.690625 -260.5675 718.38125 -261.375 718.0625 C-264 717 -264 717 -266 716 C-266 715.34 -266 714.68 -266 714 C-266.66 713.79375 -267.32 713.5875 -268 713.375 C-274.00745055 710.62158517 -279.10354506 707.05508887 -282 701 C-282.28549675 697.99557446 -282.40651178 695.2018718 -282.38311005 692.19960785 C-282.38806956 691.30894043 -282.39302908 690.418273 -282.39813888 689.50061566 C-282.41114537 686.50071467 -282.40269425 683.50125511 -282.39440918 680.50134277 C-282.39929567 678.33506754 -282.40548434 676.16879492 -282.41286707 674.00252676 C-282.42932009 668.03761138 -282.42693776 662.0728277 -282.4214921 656.10789752 C-282.41882854 649.67972855 -282.43334092 643.25159522 -282.44558716 636.82344055 C-282.46667109 624.22588034 -282.47119914 611.62836752 -282.46939927 599.03079188 C-282.46802708 588.79543995 -282.47183953 578.560102 -282.47932434 568.32475281 C-282.48037467 566.85511282 -282.48142228 565.38547284 -282.4824672 563.91583285 C-282.48298655 563.18633114 -282.48350589 562.45682943 -282.48404097 561.7052216 C-282.48456112 560.97439903 -282.48508126 560.24357645 -282.48561716 559.49060774 C-282.48614115 558.75857866 -282.48666514 558.02654958 -282.48720502 557.2723378 C-282.50179121 536.67952654 -282.51006946 516.08672043 -282.50545502 495.49390411 C-282.50528306 494.71735865 -282.50511111 493.94081318 -282.50493394 493.14073604 C-282.50404503 489.2047416 -282.50310022 485.26874718 -282.50213593 481.33275276 C-282.5019449 480.55102713 -282.50175387 479.76930149 -282.50155704 478.96388719 C-282.50116995 477.38304821 -282.50077963 475.80220922 -282.50038607 474.22137024 C-282.49441433 449.61645452 -282.50986082 425.01163281 -282.54199219 400.40673828 C-282.57804648 372.77427807 -282.59740502 345.14187748 -282.59245348 317.50939226 C-282.59198349 314.56467724 -282.59157324 311.61996222 -282.59120178 308.67524719 C-282.5910994 307.95016281 -282.59099701 307.22507842 -282.59089152 306.47802178 C-282.58969539 295.5198818 -282.60168065 284.56180612 -282.62034607 273.60368347 C-282.64155525 261.14600505 -282.64499962 248.68848777 -282.62604648 236.23080051 C-282.61685901 229.87071277 -282.61583776 223.5108945 -282.63640213 217.15082741 C-282.65500231 211.33409876 -282.65073217 205.51786236 -282.62785631 199.7011531 C-282.62364277 197.59153644 -282.627962 195.48188283 -282.64145225 193.3723051 C-282.65849014 190.51439732 -282.64501439 187.65823224 -282.62361908 184.80039215 C-282.63589661 183.9726751 -282.64817413 183.14495805 -282.6608237 182.29215866 C-282.59434321 178.06969013 -282.39250289 176.48704216 -279.65120935 173.08547354 C-276.78706349 170.83250155 -273.87901386 168.78192567 -270.8125 166.8125 C-266.68043701 164.18480336 -266.68043701 164.18480336 -263 161 C-261.6828154 160.2420511 -260.34651982 159.51701841 -259 158.8125 C-254.46275568 156.35299054 -250.32879798 153.49404297 -246.1640625 150.453125 C-244 149 -244 149 -241 148 C-240.67 147.34 -240.34 146.68 -240 146 C-238.35835147 144.95943867 -236.68711683 143.96509822 -235 143 C-233.39229464 141.98474887 -231.78833638 140.96354789 -230.1875 139.9375 C-226.80931339 137.77692536 -223.42068154 135.63647526 -220.0078125 133.53125 C-218.60925824 132.66685556 -217.21082162 131.80227073 -215.8125 130.9375 C-215.12212646 130.51162598 -214.43175293 130.08575195 -213.72045898 129.64697266 C-210.06701798 127.37077033 -206.61039319 125.01337677 -203.25 122.3125 C-200 120 -200 120 -198.02905273 120.20556641 C-195.86440498 121.05308942 -194.18266971 122.05718141 -192.28515625 123.3984375 C-191.59873047 123.87796875 -190.91230469 124.3575 -190.20507812 124.8515625 C-189.49802734 125.35429687 -188.79097656 125.85703125 -188.0625 126.375 C-183.0575174 129.89821415 -178.06294364 133.24822981 -172.74609375 136.2890625 C-166.79675004 139.73182992 -161.36816822 143.64567579 -155.90625 147.8125 C-148.90918064 153.23319169 -148.90918064 153.23319169 -141 157 C-141 157.66 -141 158.32 -141 159 C-140.113125 159.268125 -139.22625 159.53625 -138.3125 159.8125 C-131.81114873 162.1431731 -126.51615032 166.45280444 -120.99609375 170.50390625 C-118.34539249 172.42495211 -116.12605676 173.95798108 -113 175 C-113 175.66 -113 176.32 -113 177 C-112.29488281 177.2578125 -111.58976563 177.515625 -110.86328125 177.78125 C-107.75730685 179.10330186 -105.04021935 180.69747854 -102.1875 182.5 C-101.21167969 183.1084375 -100.23585937 183.716875 -99.23046875 184.34375 C-98.49441406 184.8903125 -97.75835937 185.436875 -97 186 C-97 186.66 -97 187.32 -97 188 C-96.28457031 188.27585938 -95.56914062 188.55171875 -94.83203125 188.8359375 C-92.04261145 189.98248522 -89.37709642 191.26227115 -86.6875 192.625 C-85.80449219 193.07101563 -84.92148438 193.51703125 -84.01171875 193.9765625 C-83.34785156 194.31429687 -82.68398437 194.65203125 -82 195 C-82 195.66 -82 196.32 -82 197 C-81.278125 197.268125 -80.55625 197.53625 -79.8125 197.8125 C-77.00233617 198.99901362 -74.51583443 200.27485639 -72 202 C-72 202.66 -72 203.32 -72 204 C-69.06163761 205.52359531 -66.07753705 206.78518275 -63 208 C-60.33636533 209.33181733 -58.24401957 211.05124617 -56 213 C-56 213.66 -56 214.32 -56 215 C-55.21625 215.185625 -54.4325 215.37125 -53.625 215.5625 C-49.32486564 217.26772569 -46.05327571 219.67971088 -42.3671875 222.44140625 C-40.12553312 223.917347 -38.57430609 224.44158219 -36 225 C-34.66666667 226.33333333 -33.33333333 227.66666667 -32 229 C-26.34054749 233.14025241 -26.34054749 233.14025241 -20 236 C-20 236.66 -20 237.32 -20 238 C-19.2575 238.28875 -18.515 238.5775 -17.75 238.875 C-15.43260203 239.82302644 -13.22082885 240.84845911 -11 242 C-11 242.66 -11 243.32 -11 244 C-10.41734375 244.11214844 -9.8346875 244.22429687 -9.234375 244.33984375 C-6.79689343 245.06000876 -5.2749414 246.04379395 -3.25 247.5625 C-2.63640625 248.01753906 -2.0228125 248.47257813 -1.390625 248.94140625 C-0.93171875 249.29074219 -0.4728125 249.64007813 0 250 C0 248.68 0 247.36 0 246 C-0.66 245.67 -1.32 245.34 -2 245 C-1.67 244.01 -1.34 243.02 -1 242 C-0.91181084 240.63167766 -0.87800655 239.25943441 -0.87974548 237.88827419 C-0.87768396 236.62714216 -0.87768396 236.62714216 -0.87558079 235.34053272 C-0.87917575 234.41680789 -0.88277071 233.49308307 -0.88647461 232.54136658 C-0.88632575 231.56016187 -0.88617689 230.57895716 -0.88602352 229.56801897 C-0.88672051 226.26529516 -0.89457407 222.9626263 -0.90234375 219.65991211 C-0.90426197 217.29821301 -0.90572622 214.9365135 -0.9067688 212.57481384 C-0.90993493 207.48217457 -0.91621116 202.38955179 -0.92483521 197.29691887 C-0.93718203 189.93162353 -0.94346314 182.56633266 -0.94776857 175.20102889 C-0.95483803 163.24884248 -0.96564231 151.29666282 -0.97949219 139.34448242 C-0.98032 138.628956 -0.98114781 137.91342958 -0.98200071 137.17622054 C-0.98790174 132.09664691 -0.99393583 127.01707344 -1 121.9375 C-1.00692852 116.13338227 -1.01379571 110.32926447 -1.02050781 104.52514648 C-1.02175 103.45270654 -1.02175 103.45270654 -1.02301729 102.35860115 C-1.03668886 90.4504278 -1.04645547 78.54225434 -1.05341816 66.63407522 C-1.05750304 59.94497232 -1.06377986 53.25588059 -1.07516479 46.56678581 C-1.08580548 40.28041655 -1.0920366 33.99405916 -1.0948143 27.70768166 C-1.09669419 25.39449735 -1.10031061 23.08131375 -1.10574722 20.76813507 C-1.11291009 17.62262355 -1.11400336 14.477168 -1.11352539 11.33164978 C-1.11712035 10.40569423 -1.12071531 9.47973868 -1.12441921 8.52572387 C-1.11409284 2.22818568 -1.11409284 2.22818568 0 0 Z " fill="#CDCECE" transform="translate(292,11)"/>
<path d="M0 0 C4.30794367 0.55311869 7.32007051 3.22601501 10.6875 5.75 C15.92769311 9.59554825 21.17857006 13.07388442 27 16 C27 16.66 27 17.32 27 18 C28.097677 18.40508789 28.097677 18.40508789 29.2175293 18.81835938 C31.91294788 19.9630313 34.10473175 21.26032515 36.51953125 22.90625 C37.3698291 23.48076904 38.22012695 24.05528809 39.09619141 24.6472168 C39.99257324 25.25863525 40.88895508 25.87005371 41.8125 26.5 C49.15177614 31.45998998 56.53410154 36.30315562 64.11254883 40.890625 C67.084727 42.70869376 69.57669859 44.51120396 72 47 C73.80190614 47.97715609 73.80190614 47.97715609 75.6875 48.6875 C76.780625 49.120625 77.87375 49.55375 79 50 C79 50.66 79 51.32 79 52 C81.14661975 53.11306209 83.21354765 54.07474168 85.5 54.875 C88 56 88 56 89.67578125 57.765625 C92.71672269 60.68901745 96.09041885 62.69922493 99.6875 64.875 C101.13470532 65.76466477 102.58132487 66.65528315 104.02734375 67.546875 C104.71812012 67.97162109 105.40889648 68.39636719 106.12060547 68.83398438 C110.83806326 71.76079373 115.40466032 74.9163338 119.99609375 78.03515625 C121.04925781 78.74542969 122.10242188 79.45570313 123.1875 80.1875 C124.15042969 80.84105469 125.11335938 81.49460937 126.10546875 82.16796875 C128.99023277 83.99381804 131.94394033 85.48506756 135 87 C136.02019573 87.9793879 137.02149805 88.97895449 138 90 C138.67675781 90.39832031 139.35351562 90.79664063 140.05078125 91.20703125 C142.49709211 92.69425865 144.78341285 94.24472975 147.1015625 95.91796875 C147.83890625 96.44970703 148.57625 96.98144531 149.3359375 97.52929688 C150.87267556 98.64251412 152.40649989 99.75976385 153.9375 100.88085938 C154.67226563 101.40873047 155.40703125 101.93660156 156.1640625 102.48046875 C156.82873535 102.96410889 157.4934082 103.44774902 158.17822266 103.94604492 C160.08201058 105.25038323 160.08201058 105.25038323 163 105 C164.14982879 106.14982879 165.29431651 107.3056731 166.40625 108.4921875 C170.26940941 112.1470393 174.95717807 115.31905936 180 117 C181 118 182 119 183 120 C184.53545874 120.9414298 186.10021774 121.83634864 187.6875 122.6875 C188.49574219 123.12449219 189.30398438 123.56148438 190.13671875 124.01171875 C190.75160156 124.33785156 191.36648438 124.66398437 192 125 C192 125.66 192 126.32 192 127 C192.845625 127.226875 193.69125 127.45375 194.5625 127.6875 C198.04984692 129.01903246 200.46696362 130.61693504 203.38671875 132.87890625 C205.12217901 134.19722062 205.12217901 134.19722062 208 135 C208 135.66 208 136.32 208 137 C208.68964844 137.2475 209.37929688 137.495 210.08984375 137.75 C213.47844755 139.20550767 216.44324474 141.03374871 219.5625 143 C224.6611147 146.21644588 224.6611147 146.21644588 230 149 C230 149.66 230 150.32 230 151 C231.3303125 151.37125 231.3303125 151.37125 232.6875 151.75 C236.20736712 153.07825175 238.09994621 154.62722872 241 157 C243.60869895 158.55299109 246.23914329 160.0564453 248.890625 161.53515625 C251 163 251 163 252 166 C252.23671949 168.39683116 252.42027372 170.76891863 252.5546875 173.171875 C252.61775589 174.28354034 252.61775589 174.28354034 252.68209839 175.41766357 C253.221002 186.02128528 253.14973093 196.63584439 253.125 207.25 C253.12367065 208.89195343 253.12367065 208.89195343 253.12231445 210.56707764 C253.10600882 227.72969296 252.84217819 244.85629827 252 262 C250.14624023 263.0637207 250.14624023 263.0637207 248 264 C245.66015625 262.98046875 245.66015625 262.98046875 243.0625 261.1875 C242.09183594 260.53007813 241.12117187 259.87265625 240.12109375 259.1953125 C239.09113281 258.47085937 238.06117188 257.74640625 237 257 C234.87532683 255.52036391 232.7503197 254.04120728 230.625 252.5625 C230.08101562 252.18182373 229.53703125 251.80114746 228.9765625 251.40893555 C224.21027407 248.09286046 219.2982887 245.05154793 214.33203125 242.04296875 C210.76563967 239.85630662 207.25666769 237.59299077 203.75 235.3125 C199.98376773 232.86668136 196.20862863 230.50067207 192.25 228.375 C188.23084248 226.20347716 184.57209357 223.66624115 180.85546875 221.015625 C171.85512701 214.6624426 162.61201112 208.72261486 153.1953125 203.0078125 C149.80212357 200.875662 146.52411531 198.62097542 143.25 196.3125 C139.7403744 193.84820547 136.28743462 191.51121072 132.5 189.5 C128.14953853 187.18609335 124.18336122 184.41904433 120.15722656 181.5847168 C115.02653213 177.98356417 109.77507545 174.59876204 104.484375 171.23828125 C101.72647353 169.4805357 99.0018249 167.67653242 96.28222656 165.86010742 C95.4783551 165.32342941 94.67448364 164.7867514 93.84625244 164.23381042 C93.23698914 163.82665298 92.62772583 163.41949554 92 163 C91.95358453 171.37130896 91.9180841 179.74256382 91.89637566 188.1139698 C91.88595477 192.00148196 91.87182667 195.88890583 91.84912109 199.77636719 C91.82733206 203.53055561 91.81541863 207.2846593 91.81024551 211.0389061 C91.80656061 212.46857918 91.79936495 213.89824782 91.78853989 215.32788467 C91.77394519 217.33589373 91.7731824 219.3439887 91.77294922 221.35205078 C91.768508 222.49344513 91.76406677 223.63483948 91.75949097 224.81082153 C92.07472784 228.99090006 92.62788046 232.73687364 95.79492188 235.65234375 C96.51228516 236.07644531 97.22964844 236.50054688 97.96875 236.9375 C99.17724609 237.68 99.17724609 237.68 100.41015625 238.4375 C101.26480469 238.953125 102.11945313 239.46875 103 240 C104.72439932 241.13731375 106.44306892 242.28335695 108.15625 243.4375 C109.47302734 244.31535156 109.47302734 244.31535156 110.81640625 245.2109375 C118.84375 250.5625 118.84375 250.5625 121.43359375 252.296875 C123.16628651 253.44672895 124.90882594 254.58186213 126.66015625 255.703125 C127.48386719 256.23421875 128.30757812 256.7653125 129.15625 257.3125 C129.89681641 257.78300781 130.63738281 258.25351562 131.40039062 258.73828125 C131.92826172 259.15464844 132.45613281 259.57101562 133 260 C133 260.66 133 261.32 133 262 C133.70511719 262.26554687 134.41023437 262.53109375 135.13671875 262.8046875 C138.15567786 264.06498967 140.95185076 265.53957994 143.8125 267.125 C144.78832031 267.66382813 145.76414062 268.20265625 146.76953125 268.7578125 C147.87361328 269.37269531 147.87361328 269.37269531 149 270 C149 270.66 149 271.32 149 272 C149.69867188 272.24363281 150.39734375 272.48726562 151.1171875 272.73828125 C154.45904186 274.20090856 157.15603173 276.06837154 160.125 278.1875 C164.19209136 281.06163931 168.27717344 283.85608953 172.5 286.5 C177.84636459 289.85227266 182.99858546 293.44371586 188.15234375 297.08203125 C190.41036568 298.60286632 192.53587785 299.86992161 195 301 C195.66 301.33 196.32 301.66 197 302 C197 302.66 197 303.32 197 304 C197.65742188 304.22558594 198.31484375 304.45117188 198.9921875 304.68359375 C202.96906565 306.42412354 206.48138666 308.71638467 210.125 311.0625 C211.54240687 311.97296045 212.96160918 312.88063339 214.3828125 313.78515625 C215.00559082 314.18613525 215.62836914 314.58711426 216.27001953 315.00024414 C218.14040179 316.15840295 218.14040179 316.15840295 221 317 C221.61875 317.639375 222.2375 318.27875 222.875 318.9375 C225.15239462 321.14791243 227.01708098 322.00569366 230 323 C230 323.66 230 324.32 230 325 C230.763125 325.103125 231.52625 325.20625 232.3125 325.3125 C235.34910157 326.08930505 235.88473187 326.80337541 238 329 C239.71655344 329.97163402 241.43328673 330.94295857 243.15234375 331.91015625 C246.21557492 333.71700931 248.48975049 335.42998264 251 338 C252.19454726 343.58369649 252.16054873 349.18406667 252.18081665 354.86804199 C252.18802117 355.84505302 252.19522568 356.82206405 252.20264852 357.82868147 C252.22531949 361.09345849 252.24092165 364.35822815 252.25634766 367.62304688 C252.27080328 369.96737346 252.28556103 372.31169819 252.30059814 374.65602112 C252.43055325 396.00286738 252.49690624 417.35024904 252.54844093 438.69742584 C252.55544916 441.55007457 252.56257629 444.40272297 252.56982422 447.25537109 C252.57161951 447.96433334 252.5734148 448.67329559 252.5752645 449.40374154 C252.6053597 460.89951619 252.67016474 472.39483535 252.74851067 483.8903715 C252.82834803 495.70263703 252.87412216 507.51466629 252.88746679 519.3271966 C252.89587064 525.95579419 252.92065601 532.58367089 252.98213577 539.21202087 C253.03928771 545.44383675 253.05408063 551.67431626 253.03626251 557.9063549 C253.03714231 560.1933126 253.05345122 562.48032414 253.08630753 564.76704597 C253.32207209 582.07308695 253.32207209 582.07308695 250.02077866 586.88470459 C247.72346066 588.71331995 245.70498292 589.89166136 243 591 C241.67548828 591.82564453 241.67548828 591.82564453 240.32421875 592.66796875 C239.17373047 593.32732422 239.17373047 593.32732422 238 594 C235.92889407 595.42507289 233.86700011 596.86358945 231.8125 598.3125 C227.15308509 601.57284126 222.42706244 604.60254658 217.51953125 607.48046875 C212.561524 610.47064676 207.80032104 613.7652659 203 617 C199.9660964 619.01361876 196.93101289 621.02542725 193.89453125 623.03515625 C190.26618589 625.49812213 186.74842186 628.10102709 183.25390625 630.75 C180.44236164 632.30926218 179.17464842 632.57077631 176 632 C173.64427564 630.55457407 171.55014161 629.11501106 169.375 627.4375 C168.13185798 626.51340167 166.88704697 625.59154455 165.640625 624.671875 C165.02638672 624.21619141 164.41214844 623.76050781 163.77929688 623.29101562 C159.66533692 620.30602382 155.31760331 617.67636924 151 615 C150.22398437 614.50371094 149.44796875 614.00742187 148.6484375 613.49609375 C147.93945312 613.04363281 147.23046875 612.59117187 146.5 612.125 C145.58734375 611.54105469 145.58734375 611.54105469 144.65625 610.9453125 C142.84379147 609.83925391 142.84379147 609.83925391 140 609 C140 608.01 140 607.02 140 606 C138.35 605.67 136.7 605.34 135 605 C135 604.34 135 603.68 135 603 C134.21625 602.814375 133.4325 602.62875 132.625 602.4375 C128.46302687 600.78706238 125.31742788 598.54020639 121.70703125 595.92578125 C119.02420765 594.01722131 116.28962113 592.24795214 113.5 590.5 C108.95044548 587.64120191 104.55162726 584.61954055 100.19140625 581.48046875 C98.09102884 579.9901849 98.09102884 579.9901849 96.02734375 579.0234375 C92.56580324 577.27599316 89.55790095 574.84657067 86.4375 572.55859375 C84.19776452 571.1264552 82.59304869 570.43817721 80 570 C80 569.01 80 568.02 80 567 C79.35289062 566.77570312 78.70578125 566.55140625 78.0390625 566.3203125 C73.91841606 564.53010878 70.19547406 562.22854266 66.375 559.875 C65.18100586 559.14446411 65.18100586 559.14446411 63.96289062 558.39916992 C58.41771236 554.97053628 53.13611573 551.34247183 47.96875 547.36328125 C46.12506954 545.81023507 46.12506954 545.81023507 44 546 C43.44828125 545.42765625 42.8965625 544.8553125 42.328125 544.265625 C39.42150721 541.43703721 36.28563795 539.69028912 32.75 537.75 C32.1003125 537.38648438 31.450625 537.02296875 30.78125 536.6484375 C29.19081574 535.75966541 27.59585552 534.87900064 26 534 C26 533.34 26 532.68 26 532 C25.11707275 531.81884644 25.11707275 531.81884644 24.21630859 531.6340332 C21.95134135 530.98607992 20.47580911 530.17632665 18.5390625 528.85546875 C17.90226562 528.42556641 17.26546875 527.99566406 16.609375 527.55273438 C15.95453125 527.10220703 15.2996875 526.65167969 14.625 526.1875 C13.97789062 525.74857422 13.33078125 525.30964844 12.6640625 524.85742188 C11.38413971 523.98908716 10.10594406 523.11820056 8.82958984 522.24462891 C7.11025023 521.07500076 5.37797845 519.92777798 3.640625 518.78515625 C1.46688862 517.31563328 -0.25474776 515.93916915 -2 514 C-1.67 513.34 -1.34 512.68 -1 512 C-0.94661151 509.25352825 -0.95523791 506.53490624 -1.01000977 503.79003906 C-1.0228299 502.94107056 -1.03565002 502.09210205 -1.04885864 501.21740723 C-1.07725821 499.36980011 -1.10793638 497.52222696 -1.14059639 495.67469025 C-1.19169121 492.74930972 -1.23558074 489.82390439 -1.27732849 486.89837646 C-1.39711582 478.57888406 -1.52807011 470.25959546 -1.66870117 461.94042969 C-1.75416313 456.85485948 -1.82950074 451.76922012 -1.89863396 446.68340302 C-1.92703908 444.74570376 -1.95936358 442.8080578 -1.99569893 440.87049103 C-2.04640806 438.15622275 -2.08428611 435.44204778 -2.11938477 432.72753906 C-2.1374971 431.92938782 -2.15560944 431.13123657 -2.17427063 430.30889893 C-2.21730433 425.79487057 -1.72055417 422.25489791 0 418 C3.44439012 418.65078339 5.91607065 420.02221246 8.875 421.875 C12.51757573 424.11658506 16.13659922 426.16996805 20 428 C20 428.66 20 429.32 20 430 C20.721875 430.28875 21.44375 430.5775 22.1875 430.875 C24.79166667 431.91666667 27.39583333 432.95833333 30 434 C30 434.66 30 435.32 30 436 C30.7425 436.268125 31.485 436.53625 32.25 436.8125 C34.89061949 437.95276751 36.85552844 439.09380306 39 441 C39 441.66 39 442.32 39 443 C39.57492187 443.1134375 40.14984375 443.226875 40.7421875 443.34375 C43.21643012 444.06290702 44.97326256 445.09278008 47.125 446.5 C49.06753462 447.76081492 50.92826724 448.96413362 53 450 C53 450.66 53 451.32 53 452 C53.5775 452.12375 54.155 452.2475 54.75 452.375 C57.02335767 453.00648824 58.9253529 453.88858191 61 455 C61 455.66 61 456.32 61 457 C62.299375 457.37125 62.299375 457.37125 63.625 457.75 C67.21060064 459.07800024 69.96327987 460.68630848 73 463 C73 463.66 73 464.32 73 465 C73.94875 465.268125 74.8975 465.53625 75.875 465.8125 C79 467 79 467 81 470 C82.98969233 471.02035504 84.99300751 472.01410895 87 473 C90.71285453 475.26107281 94.34995059 477.63927152 98 480 C99.19220406 480.76120704 100.38493086 481.52159585 101.578125 482.28125 C107.49139174 486.05167537 113.32203549 489.88069241 119 494 C121.38618081 495.56727804 123.7777103 497.12500374 126.1796875 498.66796875 C128 500 128 500 129 502 C130.59396973 502.89125189 132.22565071 503.7159615 133.875 504.5 C136.76031 505.87956513 139.33078996 507.22052664 142 509 C142 509.66 142 510.32 142 511 C142.721875 511.2578125 143.44375 511.515625 144.1875 511.78125 C148.03850333 513.45001811 151.13572787 515.8625993 154.5 518.34375 C156.94822802 519.96570106 159.2682438 520.95510325 162 522 C162.1158035 511.2473428 162.20466951 500.49483371 162.25906086 489.74168015 C162.28516495 484.74862406 162.32057787 479.7559943 162.37719727 474.76318359 C162.43148802 469.94561824 162.46141442 465.12846317 162.47438622 460.31061554 C162.48363139 458.47173858 162.50168519 456.63288431 162.52865028 454.79418182 C162.56490253 452.22004011 162.5699471 449.64759772 162.56762695 447.07324219 C162.58560333 446.31151199 162.60357971 445.5497818 162.62210083 444.76496887 C162.58448461 440.91281962 162.35456585 439.35583481 159.58683777 436.57820129 C158.30635307 435.79699165 158.30635307 435.79699165 157 435 C156.35417969 434.56292725 155.70835937 434.12585449 155.04296875 433.67553711 C154.43066406 433.2966333 153.81835938 432.91772949 153.1875 432.52734375 C152.50429688 432.10259766 151.82109375 431.67785156 151.1171875 431.24023438 C150.41851562 430.81033203 149.71984375 430.38042969 149 429.9375 C148.30132812 429.50373047 147.60265625 429.06996094 146.8828125 428.62304688 C143.94492024 426.80210799 141.01498855 425.00841154 138 423.31640625 C137.34 422.88199219 136.68 422.44757813 136 422 C136 421.34 136 420.68 136 420 C134.7934375 419.690625 134.7934375 419.690625 133.5625 419.375 C128.87714898 417.5666189 125.09695973 414.86787181 121 412 C118.08990632 410.03884991 115.17648282 408.10858596 112.1875 406.26953125 C110.6715625 405.33173828 110.6715625 405.33173828 109.125 404.375 C108.15820312 403.78460937 107.19140625 403.19421875 106.1953125 402.5859375 C105.47085938 402.06257813 104.74640625 401.53921875 104 401 C104 400.34 104 399.68 104 399 C103.2575 398.896875 102.515 398.79375 101.75 398.6875 C98.79636774 397.94909194 97.347101 396.8776808 95 395 C94.01 394.67 93.02 394.34 92 394 C91.319375 393.2575 90.63875 392.515 89.9375 391.75 C86.91935814 388.5564921 83.2633897 387.00378439 79.3046875 385.2109375 C77.01156961 384.00607895 75.80237197 382.82035074 74 381 C72.04563392 379.73177107 70.06241972 378.50760354 68.0625 377.3125 C60.2830902 372.61083978 52.63759154 367.70107309 45.3125 362.3125 C42.9410671 360.58782152 40.5305931 359.18028537 37.9375 357.8125 C33.70799421 355.5389602 29.92356327 352.8349739 26.0625 350 C20.63561245 346.02311698 15.18577592 342.70805858 9 340 C9 339.34 9 338.68 9 338 C8.01 338 7.02 338 6 338 C6 337.34 6 336.68 6 336 C5.401875 335.731875 4.80375 335.46375 4.1875 335.1875 C1.82514947 333.90508114 0.54492072 333.2070296 -1 331 C-2.21925036 323.98842217 -2.14272721 317.00993026 -2.13371277 309.90971375 C-2.13597833 308.59825829 -2.13824388 307.28680283 -2.14057809 305.9356063 C-2.14667343 302.31096296 -2.1465652 298.68634275 -2.14538372 295.06169546 C-2.14517915 291.14694642 -2.15070354 287.23220471 -2.15544128 283.31745911 C-2.1637343 275.65600694 -2.16649545 267.99456246 -2.16705366 260.33310618 C-2.16752915 254.10858815 -2.16958553 247.88407266 -2.17275429 241.65955544 C-2.18155462 224.01400724 -2.18617425 206.36846512 -2.18542381 188.72291472 C-2.18536388 187.29712393 -2.18536388 187.29712393 -2.18530273 185.8425293 C-2.18526185 184.89084351 -2.18522097 183.93915773 -2.18517885 182.95863298 C-2.18477183 167.51262613 -2.19435724 152.06664358 -2.2084411 136.62064376 C-2.22278654 120.76291025 -2.2297124 104.90518862 -2.22884732 89.04744846 C-2.22851488 80.14340964 -2.23128317 71.23939636 -2.24202538 62.33536339 C-2.25110594 54.76025269 -2.25332558 47.18517913 -2.24651595 39.61006536 C-2.24323927 35.74337831 -2.24323536 31.87676261 -2.2518692 28.01008224 C-2.26111808 23.82512285 -2.25498886 19.6403304 -2.24723816 15.45536804 C-2.25238172 14.22446007 -2.25752529 12.9935521 -2.26282471 11.72534388 C-2.25822592 10.60961774 -2.25362712 9.49389161 -2.24888897 8.34435558 C-2.24910634 7.37774728 -2.24932371 6.41113898 -2.24954766 5.41523951 C-2 3 -2 3 0 0 Z " fill="#CDCECE" transform="translate(268,364)"/>
<path d="M0 0 C4.62609198 -0.3227506 7.28026121 0.15549386 11 3 C11 3.66 11 4.32 11 5 C11.72316406 5.25910156 12.44632812 5.51820312 13.19140625 5.78515625 C16.11073098 7.04789615 18.37824205 8.55747639 20.9375 10.4375 C24.5294466 13.01468142 27.96971342 15.19697705 32 17 C32 17.66 32 18.32 32 19 C32.66 19 33.32 19 34 19 C34 19.66 34 20.32 34 21 C36.31 21.66 38.62 22.32 41 23 C41 23.66 41 24.32 41 25 C41.556875 25.103125 42.11375 25.20625 42.6875 25.3125 C45.4769101 26.14178408 47.6139064 27.34299056 50 29 C50 29.66 50 30.32 50 31 C50.55171875 31.10441406 51.1034375 31.20882812 51.671875 31.31640625 C54.49588509 32.14560384 56.72554916 33.4279965 59.25 34.9375 C60.14203125 35.46214844 61.0340625 35.98679688 61.953125 36.52734375 C62.62859375 37.01332031 63.3040625 37.49929687 64 38 C64 38.66 64 39.32 64 40 C64.721875 40.268125 65.44375 40.53625 66.1875 40.8125 C68.99766383 41.99901362 71.48416557 43.27485639 74 45 C74 45.66 74 46.32 74 47 C74.78375 47.144375 75.5675 47.28875 76.375 47.4375 C79 48 79 48 81 49 C81 49.66 81 50.32 81 51 C81.928125 51.268125 82.85625 51.53625 83.8125 51.8125 C86.94747504 52.98043188 87.75332517 53.75332517 90 56 C93.10007201 57.20049407 93.10007201 57.20049407 96 58 C96 58.66 96 59.32 96 60 C96.70125 60.226875 97.4025 60.45375 98.125 60.6875 C101.61059155 62.27874832 104.06423446 64.55352872 107 67 C108.66392045 67.67349161 110.33032028 68.3409159 112 69 C112.87785156 69.90685547 112.87785156 69.90685547 113.7734375 70.83203125 C116.31765063 73.30929141 118.91478557 74.87414081 122 76.625 C123.03125 77.21539062 124.0625 77.80578125 125.125 78.4140625 C127.3953298 79.66644551 129.66827721 80.86776922 132 82 C132 82.66 132 83.32 132 84 C132.71929688 84.26554687 133.43859375 84.53109375 134.1796875 84.8046875 C142.31137787 88.25108259 149.4327118 94.00472645 156.5 99.21484375 C159.57137006 101.40799394 162.67766415 103.21104993 166 105 C167.3144102 105.74664722 168.62693609 106.49662195 169.9375 107.25 C170.948125 107.8275 171.95875 108.405 173 109 C173 109.66 173 110.32 173 111 C173.86625 111.226875 174.7325 111.45375 175.625 111.6875 C178.84945452 112.94145453 180.76660163 114.38040404 183.3203125 116.65625 C185.18357371 118.14685896 187.0770462 119.20094426 189.1875 120.3125 C192.89726888 122.28604708 196.19750186 124.54574239 199.5625 127.0625 C203.29438056 129.8432188 206.86602994 132.07367852 211.09375 133.98828125 C213.36136093 135.19178787 215.19958853 136.69175874 217.1875 138.3125 C220.08664299 140.60427065 220.08664299 140.60427065 223.6875 141.125 C226.08516361 140.0634971 226.08516361 140.0634971 228.1875 138.25 C230.70748402 136.23401279 232.80159098 135.05379755 235.6875 133.6875 C240.27236947 131.46967113 244.27796282 128.82165518 248.40234375 125.84765625 C251.22246332 123.84176669 254.09229905 121.93904755 257 120.0625 C257.9075 119.47597656 258.815 118.88945312 259.75 118.28515625 C262 117 262 117 264 117 C264.33 116.01 264.66 115.02 265 114 C266.95117188 112.81982422 266.95117188 112.81982422 269.46875 111.6796875 C274.73624997 109.17518982 279.59666926 106.27375202 284.5 103.125 C285.32516113 102.6005127 286.15032227 102.07602539 287.00048828 101.53564453 C292.10687338 98.27202905 297.12297762 94.91616789 301.9921875 91.3046875 C304 90 304 90 306.5703125 89.0078125 C309.10996025 87.95438948 310.13631313 86.96050177 312 85 C313.66203863 83.85786696 315.35308324 82.75742272 317.0625 81.6875 C318.03703125 81.07519531 319.0115625 80.46289062 320.015625 79.83203125 C322.76274499 78.14564476 325.53194549 76.50541605 328.3125 74.875 C332.23994319 72.54211115 335.54814567 69.98114692 339 67 C344.62162162 63 344.62162162 63 347 63 C347 62.34 347 61.68 347 61 C347.66386719 60.67386719 348.32773437 60.34773438 349.01171875 60.01171875 C357.9827631 55.57203403 366.21728146 50.41566709 374.3671875 44.609375 C374.94726562 44.19896973 375.52734375 43.78856445 376.125 43.36572266 C377.27770797 42.54847072 378.42628232 41.72535207 379.5703125 40.89599609 C383.66520874 38 383.66520874 38 387 38 C387.8353125 37.1646875 387.8353125 37.1646875 388.6875 36.3125 C391.29798623 33.70201377 394.03490618 32.02082917 397.1953125 30.1484375 C399.14560892 28.99901138 399.14560892 28.99901138 401 27 C405.5 24 405.5 24 409 24 C409.33 23.01 409.66 22.02 410 21 C411.5390625 19.96484375 411.5390625 19.96484375 413.625 18.9375 C419.00885571 16.11945598 423.95046828 12.74748431 428.94580078 9.30249023 C433.79178513 6 433.79178513 6 436 6 C436.33 5.01 436.66 4.02 437 3 C439.4375 3.8125 439.4375 3.8125 442 5 C443.32856811 8.98570434 443.14126955 12.8048539 443.13422108 16.96034813 C443.13657331 17.89260558 443.13892554 18.82486303 443.14134905 19.78537071 C443.14805584 22.93866155 443.14758032 26.09191135 443.14717102 29.24520874 C443.15046858 31.51700009 443.15419392 33.78879084 443.1583125 36.06058085 C443.16835256 42.32641778 443.1720525 48.59224513 443.17470181 54.85808897 C443.17819903 60.91431196 443.18634564 66.97052767 443.19424575 73.02674608 C443.2150991 89.25561026 443.22556073 105.48447628 443.23437535 121.71335074 C443.23857997 129.38743943 443.24380216 137.06152733 443.24905988 144.73561536 C443.26694945 170.99433185 443.28194705 197.25304857 443.28938007 223.51177025 C443.28985483 225.16054866 443.29033072 226.80932707 443.29080774 228.45810548 C443.29104411 229.27576534 443.29128049 230.09342521 443.29152403 230.93586264 C443.29272525 235.07866104 443.29394069 239.22145943 443.29516602 243.36425781 C443.29540617 244.18641368 443.29564632 245.00856955 443.29589374 245.85563924 C443.30379056 272.52515946 443.32723059 299.19463527 443.35972196 325.8641361 C443.3939952 354.04756241 443.41372881 382.23096273 443.41702431 410.41441023 C443.41744187 413.50632136 443.41792144 416.59823247 443.41844749 419.69014359 C443.41857069 420.45148288 443.41869388 421.21282218 443.4188208 421.99723237 C443.42115577 434.26525147 443.43683207 446.53321909 443.45728934 458.80121982 C443.47751312 471.12435861 443.483041 483.44743536 443.47351871 495.77058767 C443.46875184 502.45060531 443.47097354 509.13049071 443.49028015 515.81049538 C443.50778496 521.91959644 443.50701794 528.02840593 443.49138286 534.13750954 C443.48898741 536.35351382 443.49342942 538.56953764 443.50521151 540.7855119 C443.52018647 543.78669114 443.51075788 546.7868179 443.49498463 549.78796959 C443.50520683 550.65797132 443.51542904 551.52797304 443.52596101 552.42433846 C443.47883661 556.5034211 443.29342069 558.52648515 441.09406346 562.0757519 C439 564 439 564 437 564 C436.67 564.66 436.34 565.32 436 566 C433.85534414 567.47297792 431.70623774 568.87530472 429.5 570.25 C428.22085908 571.05650698 426.9422134 571.86379996 425.6640625 572.671875 C425.03790039 573.06697266 424.41173828 573.46207031 423.76660156 573.86914062 C420.74637399 575.80248696 417.80410251 577.84926672 414.8671875 579.90625 C412.91548692 581.04950557 411.21028627 581.56776624 409 582 C409 582.66 409 583.32 409 584 C407.576875 584.6496875 407.576875 584.6496875 406.125 585.3125 C402.79958063 586.79302201 402.79958063 586.79302201 401 590 C399.68 590 398.36 590 397 590 C397 590.66 397 591.32 397 592 C394.15569366 594.22463176 391.05192892 596.0732772 388 598 C387.071875 598.61875 386.14375 599.2375 385.1875 599.875 C383 601 383 601 379 601 C372.72222208 582.16666624 376.86404442 555.59225882 376.88393438 535.8249259 C376.8882946 530.38013562 376.88678854 524.93534635 376.8860321 519.49055481 C376.88551037 510.08095132 376.88862037 500.67135482 376.89426994 491.26175308 C376.9024327 477.65741965 376.90500504 464.05308956 376.90625793 450.44875394 C376.90844098 428.37110749 376.91508074 406.29346475 376.92456055 384.21582031 C376.93375404 362.78255227 376.94083693 341.34928525 376.94506836 319.91601562 C376.94519989 319.25405432 376.94533141 318.59209301 376.94546692 317.91007228 C376.94691643 310.60196119 376.94830822 303.29385009 376.94967639 295.98573899 C376.96002573 240.9904901 376.97762362 185.99524523 377 131 C375.38893286 131.78690961 373.77995492 132.57809751 372.171875 133.37109375 C371.2756543 133.81122803 370.37943359 134.2513623 369.45605469 134.70483398 C366.6601747 136.17920211 364.39165385 137.94052029 362 140 C358.74727714 142.25699137 355.55911176 144.27784915 352 146 C348.39732086 148.12433839 344.84839814 150.32904728 341.3125 152.5625 C340.35988281 153.16191406 339.40726563 153.76132813 338.42578125 154.37890625 C335.95190112 155.91808312 335.95190112 155.91808312 334 158 C332.87376788 158.71916027 331.72561174 159.404654 330.5625 160.0625 C329.96566406 160.40410156 329.36882812 160.74570313 328.75390625 161.09765625 C327 162 327 162 324 163 C324 163.66 324 164.32 324 165 C323.01 165 322.02 165 321 165 C321 165.66 321 166.32 321 167 C320.30777344 167.31710938 319.61554688 167.63421875 318.90234375 167.9609375 C312.66410681 170.9362231 306.86815383 174.22800552 301.125 178.0625 C300.5074585 178.4735498 299.88991699 178.88459961 299.25366211 179.30810547 C296.33203327 181.29056889 293.66267058 183.29395849 290.9921875 185.62109375 C287.7831805 188.17237999 284.77194254 189.43531145 281 191 C278.7968144 192.42420212 276.62934558 193.90509475 274.5 195.4375 C263.70270913 203.09909696 263.70270913 203.09909696 258 205 C258 205.66 258 206.32 258 207 C257.360625 207.12375 256.72125 207.2475 256.0625 207.375 C255.381875 207.58125 254.70125 207.7875 254 208 C253.67 208.66 253.34 209.32 253 210 C251.41259032 211.09810061 249.78013782 212.13191731 248.125 213.125 C247.24070312 213.66382813 246.35640625 214.20265625 245.4453125 214.7578125 C243 216 243 216 240 216 C239.67 216.99 239.34 217.98 239 219 C237.07421875 220.5 237.07421875 220.5 234.6875 222 C232.3354922 223.49284462 230.10531355 224.91132559 227.97265625 226.70703125 C224.60159936 228.91657547 221.83423273 227.70294267 218 227 C217.67 226.01 217.34 225.02 217 224 C215.01276732 223.29618843 213.01222047 222.6288189 211 222 C210.67 221.34 210.34 220.68 210 220 C208.25500391 219.15453646 208.25500391 219.15453646 206.125 218.375 C199.3409101 215.49854588 193.75090392 210.91977878 187.97265625 206.421875 C185.8109116 204.86370658 183.59001236 203.58574202 181.25 202.3125 C180.45078125 201.87550781 179.6515625 201.43851563 178.828125 200.98828125 C178.22484375 200.66214844 177.6215625 200.33601562 177 200 C177 199.34 177 198.68 177 198 C176.113125 197.731875 175.22625 197.46375 174.3125 197.1875 C171.2090334 196.0749365 168.68889315 194.89804222 166 193 C166 192.34 166 191.68 166 191 C165.34 190.79375 164.68 190.5875 164 190.375 C161.31782974 189.14567197 159.48789547 187.92175859 157.1875 186.125 C153.94033312 183.60890259 150.73205228 181.75885019 147.03125 180.00390625 C144.78440356 178.8934456 142.64533544 177.67051066 140.5 176.375 C139.8296875 175.97023438 139.159375 175.56546875 138.46875 175.1484375 C137.9840625 174.76945313 137.499375 174.39046875 137 174 C137 173.34 137 172.68 137 172 C136.401875 171.855625 135.80375 171.71125 135.1875 171.5625 C130.88408344 170.45590717 129.09138797 169.11985379 126 166 C124.38669196 164.86879903 122.73746551 163.78772299 121.0625 162.75 C119.63164063 161.85474609 119.63164063 161.85474609 118.171875 160.94140625 C115.9179453 159.56184583 113.65908703 158.19498956 111.390625 156.83984375 C110.79499756 156.48116211 110.19937012 156.12248047 109.58569336 155.75292969 C107.88022611 154.72819348 106.16874174 153.7134919 104.45703125 152.69921875 C103.64621094 152.13847656 102.83539063 151.57773438 102 151 C102 150.34 102 149.68 102 149 C101.28328125 148.73703125 100.5665625 148.4740625 99.828125 148.203125 C96.90271039 146.9586116 94.41488709 145.47983899 91.75 143.75 C90.79222656 143.12996094 89.83445312 142.50992188 88.84765625 141.87109375 C84.88486597 139.26728505 80.93343541 136.64794869 77 134 C73.38384098 131.56604681 69.75744115 129.2102595 66 127 C66 127.78375 66 128.5675 66 129.375 C66 130.91666667 66 132.45833333 66 134 C66.00651944 135.40578662 66.01369526 136.81157023 66.02120399 138.21735191 C66.02592079 139.10713309 66.03063758 139.99691426 66.03549731 140.9136585 C66.0407525 141.89729615 66.04600768 142.88093381 66.05142212 143.89437866 C66.06285434 146.05859876 66.07427223 148.22281894 66.0856781 150.38703918 C66.09489194 152.13353225 66.09489194 152.13353225 66.10429192 153.915308 C66.19732886 171.5935534 66.28764639 189.27180852 66.37069702 206.95010376 C66.37407234 207.66857095 66.37744765 208.38703814 66.38092525 209.12727706 C66.41578232 216.55806704 66.45024771 223.98885877 66.48431293 231.41965242 C66.50183414 235.23940406 66.51944431 239.05915528 66.53710938 242.87890625 C66.54062461 243.63933277 66.54413985 244.39975929 66.5477616 245.18322904 C66.60494875 257.50886427 66.66923192 269.83445287 66.736111 282.16003887 C66.80457634 294.80718985 66.86541381 307.45436087 66.91914403 320.10158312 C66.95254452 327.90656387 66.99193038 335.71146762 67.03892837 343.51637854 C67.07429244 349.49482635 67.09905861 355.47326958 67.11981392 361.45178795 C67.13001357 363.90766407 67.14368851 366.36352851 67.16103554 368.81936455 C67.18414612 372.16350017 67.19493337 375.50745258 67.20254517 378.85165405 C67.21712011 380.32041837 67.21712011 380.32041837 67.2319895 381.81885469 C67.2314908 382.71385136 67.2309921 383.60884803 67.23047829 384.53096581 C67.23427549 385.30299225 67.23807269 386.0750187 67.24198496 386.87043989 C66.96812161 389.28054201 66.19829313 390.90797921 65 393 C59.48341169 391.42383191 55.07768576 389.07768576 51 385 C49.35008418 384.29289322 47.68437744 383.62056011 46 383 C46 382.34 46 381.68 46 381 C44.35 380.34 42.7 379.68 41 379 C41 378.34 41 377.68 41 377 C40.21625 376.855625 39.4325 376.71125 38.625 376.5625 C36 376 36 376 34 375 C34 374.34 34 373.68 34 373 C33.46375 372.9175 32.9275 372.835 32.375 372.75 C29.12659309 371.72418729 26.71248141 370.03436106 24 368 C24 367.34 24 366.68 24 366 C23.18982422 365.85111328 23.18982422 365.85111328 22.36328125 365.69921875 C14.90820811 363.4935029 6.05382529 358.02222294 1 352 C-0.81576341 348.21263084 -1.24976177 345.20256601 -1.24888897 341.0207653 C-1.25348777 339.81437208 -1.25808656 338.60797886 -1.26282471 337.36502826 C-1.25780992 336.02979964 -1.25260767 334.69457172 -1.24723816 333.35934448 C-1.24882651 331.93823475 -1.25129036 330.51712578 -1.25455457 329.09601891 C-1.26097094 325.19092933 -1.25489772 321.28594334 -1.24679029 317.38086057 C-1.24021532 313.16953273 -1.2451613 308.95821651 -1.24867249 304.74688721 C-1.25371593 296.49746033 -1.24807122 288.24807351 -1.23882218 279.99865161 C-1.22844383 270.39734082 -1.22850822 260.79603872 -1.22899476 251.19472338 C-1.22949549 234.06812092 -1.22033066 216.94153713 -1.20581055 199.81494141 C-1.19171852 183.18472961 -1.18463996 166.55453425 -1.18530273 149.92431641 C-1.18534269 148.89979975 -1.18538265 147.8752831 -1.18542381 146.81972049 C-1.18546417 145.79699846 -1.18550452 144.77427643 -1.1855461 143.72056282 C-1.18623542 124.802013 -1.18034946 105.88347018 -1.17139288 86.96492263 C-1.16837299 80.26720197 -1.16731291 73.56948259 -1.16686058 66.87176132 C-1.1661794 58.7146786 -1.16172798 50.55760768 -1.15252777 42.40052997 C-1.14790176 38.23617148 -1.14486724 34.07182812 -1.14612198 29.90746689 C-1.14721378 26.0993256 -1.1437185 22.2912178 -1.13647345 18.4830835 C-1.13465425 17.10162867 -1.1345355 15.7201704 -1.13624074 14.33871542 C-1.13829476 12.46832716 -1.13365532 10.59793506 -1.12863445 8.72755241 C-1.12793003 7.68641159 -1.1272256 6.64527076 -1.12649983 5.57258022 C-1 3 -1 3 0 0 Z " fill="#CDCECE" transform="translate(403,83)"/>
<path d="M0 0 C2.97 0.495 2.97 0.495 6 1 C6 1.66 6 2.32 6 3 C6.825 3.20625 7.65 3.4125 8.5 3.625 C12.24131445 5.0948021 14.72385389 6.95906806 17.85546875 9.4140625 C22.32630955 12.72036735 27.29527025 15.19588219 32.3125 17.5625 C35 19 35 19 36.84375 20.875 C41.89568867 25.85372217 48.54996757 29.25379883 54.75 32.625 C61.99980231 36.60069804 67.27288255 39.81864764 70 48 C69.67 48.99 69.34 49.98 69 51 C68.91121714 53.55157483 68.8797391 56.07487804 68.89536285 58.6261425 C68.89661404 59.80819844 68.89661404 59.80819844 68.89789051 61.01413429 C68.9019481 63.67692637 68.91323798 66.33963995 68.92443848 69.00241089 C68.9288459 70.92201587 68.93280827 72.84162192 68.93636179 74.76122868 C68.94743833 80.05390657 68.96480261 85.34654841 68.98313642 90.63920546 C69.00178636 96.34087699 69.01462854 102.04256179 69.02812195 107.74424744 C69.05227724 117.63162132 69.08000877 127.51898001 69.11003113 137.40633774 C69.15338611 151.71607354 69.1902308 166.0258205 69.22527176 180.33557881 C69.24161849 187.00157277 69.25824172 193.66756603 69.27497101 200.33355904 C69.27664556 201.00095994 69.27832011 201.66836085 69.2800454 202.35598603 C69.31999743 218.24937447 69.36310142 234.14275412 69.40673828 250.03613281 C69.40864677 250.73167582 69.41055526 251.42721883 69.41252158 252.14383891 C69.44542172 264.13240703 69.47854116 276.12097454 69.5117178 288.10954189 C69.53897643 297.95974647 69.56617467 307.8099512 69.59326172 317.66015625 C69.59517036 318.35380596 69.59707901 319.04745567 69.59904549 319.76212507 C69.64262839 335.60758261 69.68528752 351.45304191 69.72502899 367.2985096 C69.72670123 367.96511207 69.72837347 368.63171455 69.73009638 369.3185171 C69.74842071 376.63250101 69.76649752 383.94648551 69.7843852 391.26047051 C69.81947996 405.53056664 69.85821824 419.80064408 69.90165842 434.07071729 C69.93121168 443.85524201 69.95711353 453.63977199 69.98015797 463.42431419 C69.99358206 469.06835012 70.00870611 474.71236826 70.02837181 480.35638618 C70.04636556 485.52825792 70.05956792 490.70011943 70.06904382 495.87201358 C70.07330312 497.73823131 70.07929729 499.60444609 70.08724958 501.47065173 C70.12845912 511.37318935 69.98398081 521.13617382 69 531 C68.01 531.33 67.02 531.66 66 532 C65.88914062 532.598125 65.77828125 533.19625 65.6640625 533.8125 C64.63436881 537.20443215 62.30787377 538.13693379 59.375 540 C58.281875 540.69996094 57.18875 541.39992188 56.0625 542.12109375 C53.85029066 543.47832933 51.64283992 544.80319466 49.375 546.0625 C44.70376754 548.74413345 40.3886596 551.88383478 36 555 C30.32069971 559 30.32069971 559 28 559 C28 559.66 28 560.32 28 561 C26.02 561.66 24.04 562.32 22 563 C22 563.66 22 564.32 22 565 C20.54462432 565.83848804 19.08559627 566.67063934 17.625 567.5 C16.81289063 567.9640625 16.00078125 568.428125 15.1640625 568.90625 C13 570 13 570 11 570 C11 570.66 11 571.32 11 572 C8.1875 573.5625 8.1875 573.5625 5 575 C4.01 574.67 3.02 574.34 2 574 C1.01533859 559.11366447 0.86866904 544.28543208 0.90234375 529.37036133 C0.90426758 526.84448781 0.90572918 524.3186139 0.9067688 521.79273987 C0.90991095 516.38399809 0.9160377 510.97527313 0.92483521 505.56653786 C0.93753884 497.69454924 0.94350134 489.8225656 0.94776857 481.9505684 C0.95481456 469.10384173 0.96558925 456.2571214 0.97949219 443.41040039 C0.98032 442.64421352 0.98114781 441.87802665 0.98200071 441.088622 C0.98956289 434.12050539 0.99736851 427.15238907 1.00520325 420.18427277 C1.01037331 415.57963569 1.01547507 410.97499855 1.02050781 406.37036133 C1.02133594 405.61392559 1.02216407 404.85748986 1.02301729 404.07813183 C1.03686971 391.30816031 1.04654084 378.53818867 1.05341816 365.76821154 C1.05743052 358.64080902 1.06352955 351.51342088 1.07516479 344.38602638 C1.12113824 315.88788266 1.08457053 287.40493197 0.35804749 258.914258 C0.03163366 246.04378171 -0.07846502 233.18317074 -0.0625 220.30859375 C-0.06181078 219.12362431 -0.06112156 217.93865486 -0.06041145 216.71777725 C-0.05646878 214.02633991 -0.04806508 211.33497253 -0.03735352 208.64355469 C-0.03095275 206.63911992 -0.02470263 204.63468467 -0.01858521 202.63024902 C-0.01540913 201.61731277 -0.01223305 200.60437653 -0.00896072 199.56074524 C0.01986618 189.51317617 0.02979092 179.46557435 0.03515625 169.41796875 C0.03582659 168.23991795 0.03649693 167.06186714 0.03718758 165.84811783 C0.04396353 144.68550544 -0.08489061 123.52507054 -0.25390625 102.36328125 C-0.26002788 101.59015744 -0.26614951 100.81703363 -0.27245665 100.02048182 C-0.3944796 84.61043317 -0.52388113 69.2004608 -0.66968971 53.79061788 C-0.72441957 47.99088751 -0.77588695 42.19113382 -0.82505554 36.39135367 C-0.85392576 33.01365642 -0.884812 29.63600363 -0.92053413 26.25837135 C-0.95884421 22.57103558 -0.99098591 18.88369449 -1.02172852 15.19628906 C-1.03467453 14.11147468 -1.04762054 13.02666029 -1.06095886 11.90897274 C-1.06799835 10.91809438 -1.07503784 9.92721601 -1.08229065 8.90631104 C-1.09058679 8.04953892 -1.09888292 7.1927668 -1.10743046 6.31003189 C-1.00323624 4.06958749 -0.6275235 2.14732894 0 0 Z " fill="#CDCECE" transform="translate(534,272)"/>
<path d="M0 0 C2.97 0.495 2.97 0.495 6 1 C6 1.66 6 2.32 6 3 C6.78310547 3.11794922 6.78310547 3.11794922 7.58203125 3.23828125 C10.97998312 4.30871843 13.74372191 6.23448117 16.6875 8.1875 C17.31180908 8.59532715 17.93611816 9.0031543 18.5793457 9.42333984 C22.66461644 12.09758478 26.72443415 14.81018537 30.78125 17.52734375 C40.10150969 23.76740782 40.10150969 23.76740782 50 29 C50 29.66 50 30.32 50 31 C50.721875 31.2475 51.44375 31.495 52.1875 31.75 C55.25057808 33.11136803 57.41334339 34.88983277 60 37 C60.99 37.33 61.98 37.66 63 38 C63 38.66 63 39.32 63 40 C64.485 40.495 64.485 40.495 66 41 C66.95969518 43.87908555 67.13505506 45.7157304 67.15737724 48.70845222 C67.17178956 50.17242433 67.17178956 50.17242433 67.18649304 51.66597164 C67.1948316 53.2812844 67.1948316 53.2812844 67.20333862 54.92922974 C67.21303708 56.074153 67.22273554 57.21907625 67.23272789 58.39869416 C67.25860339 61.59549109 67.27995374 64.7922808 67.29920501 67.9891234 C67.31653134 70.74731297 67.33730268 73.50547248 67.3580502 76.26363811 C67.42120274 84.67363167 67.47432454 93.08367222 67.52496576 101.49374914 C67.54960518 105.57895829 67.57559547 109.66415748 67.6020667 113.74935513 C68.13309616 195.71539566 68.15426177 277.68177256 68.12946185 359.64921454 C68.12489224 375.05569633 68.12585536 390.46217064 68.13037109 405.86865234 C68.13571676 424.11337439 68.13784162 442.35809208 68.13475883 460.60281479 C68.13444044 462.53791499 68.13412607 464.47301519 68.13381577 466.40811539 C68.13358435 467.83398126 68.13358435 467.83398126 68.13334826 469.2886525 C68.13249069 475.93201816 68.13392727 482.57538097 68.13629532 489.21874619 C68.13908864 497.2218577 68.13836062 505.22495939 68.13301457 513.22806977 C68.13038734 517.29253207 68.12935752 521.35697794 68.13266373 525.42144012 C68.13564015 529.1352103 68.13401191 532.84894873 68.12868617 536.56271602 C68.12704014 538.53953775 68.13030451 540.51636169 68.13374341 542.49318111 C68.12983178 544.25522701 68.12983178 544.25522701 68.12584114 546.0528698 C68.12567879 547.06395927 68.12551644 548.07504875 68.12534916 549.1167773 C67.99364346 552.14621018 67.55763368 555.02189185 67 558 C64.05373401 558.4419399 61.84986885 558.50992131 59.2421875 556.9453125 C57.93177549 555.93097685 56.63460649 554.89941105 55.34765625 553.85546875 C52.59698374 551.68147633 49.73333681 549.75136223 46.8125 547.8125 C45.82894531 547.15894531 44.84539062 546.50539063 43.83203125 545.83203125 C41.969074 544.62689063 40.06977574 543.47587637 38.13671875 542.38671875 C37.43160156 541.92910156 36.72648437 541.47148438 36 541 C36 540.34 36 539.68 36 539 C35.195625 538.79375 34.39125 538.5875 33.5625 538.375 C28.83468901 536.55023085 22.36121624 533.72243248 20 529 C18.3523962 528.28752268 16.68236471 527.62599617 15 527 C13.65949948 526.34786461 12.32338632 525.68620031 11 525 C11 524.34 11 523.68 11 523 C10.34 523 9.68 523 9 523 C9 522.34 9 521.68 9 521 C8.401875 520.855625 7.80375 520.71125 7.1875 520.5625 C2.18390805 519.27586207 2.18390805 519.27586207 0 516 C-0.31729794 513.19394803 -0.31729794 513.19394803 -0.41062927 509.70659256 C-0.42977532 509.06384635 -0.44892137 508.42110014 -0.4686476 507.75887677 C-0.52937615 505.59143952 -0.57473275 503.42399902 -0.61889648 501.25616455 C-0.65683254 499.68863378 -0.69488574 498.12110584 -0.73304653 496.55358052 C-1.18154832 476.77907999 -1.1277603 456.99887025 -1.10140657 437.22056842 C-1.09492041 431.48002943 -1.09445491 425.73948923 -1.0932312 419.99894714 C-1.09037022 410.09466941 -1.08397488 400.19039933 -1.07516479 390.28612518 C-1.06251445 375.9592836 -1.05651248 361.63244478 -1.05223143 347.30559853 C-1.05020417 340.60180483 -1.04789975 333.89801125 -1.04548645 327.19421768 C-1.04524544 326.52371227 -1.04500442 325.85320687 -1.04475611 325.16238311 C-1.03897135 309.27866426 -1.03001205 293.39494747 -1.02050781 277.51123047 C-1.01988734 276.47134861 -1.01988734 276.47134861 -1.01925434 275.41045903 C-1.01337503 265.56307122 -1.00735595 255.71568349 -1.001302 245.86829579 C-0.99392011 233.85832356 -0.98661444 221.84835129 -0.97949219 209.83837891 C-0.9790776 209.14126343 -0.97866301 208.44414796 -0.97823586 207.72590777 C-0.96878693 191.80913055 -0.96024118 175.89235353 -0.95451355 159.97557449 C-0.95427256 159.30690828 -0.95403156 158.63824208 -0.95378327 157.94931326 C-0.95116279 150.61610211 -0.94878076 143.2828909 -0.94658184 135.94967961 C-0.94210264 121.64981148 -0.93406687 107.3499537 -0.92143703 93.0500904 C-0.91302471 83.27525262 -0.90812366 73.50041723 -0.90601182 63.72557607 C-0.90466494 58.08611764 -0.90164392 52.44667258 -0.89425278 46.80721855 C-0.88751614 41.648031 -0.88536511 36.48886283 -0.88688838 31.32967129 C-0.88661648 29.46182895 -0.88463736 27.59398592 -0.8807956 25.7261475 C-0.87582128 23.19052422 -0.87701338 20.65497543 -0.87974548 18.11935043 C-0.87683262 17.39209749 -0.87391976 16.66484454 -0.87091863 15.91555363 C-0.88381136 11.50004186 -1.28521768 7.34331817 -2 3 C-1.34 2.67 -0.68 2.34 0 2 C0 1.34 0 0.68 0 0 Z " fill="#CDCECE" transform="translate(184,310)"/>
<path d="M0 0 C0.02286607 57.80287228 0.04050009 115.60574415 0.05106533 173.40862005 C0.05231271 180.22570114 0.05360926 187.04278221 0.05493164 193.85986328 C0.0550624 194.53826035 0.05519316 195.21665741 0.05532788 195.91561196 C0.0595925 217.92145526 0.06710625 239.92729599 0.07629722 261.93313774 C0.08598853 285.1790454 0.09199396 308.42495154 0.09408849 331.67086136 C0.09546374 345.60374319 0.09981441 359.53661766 0.10791647 373.46949722 C0.11318383 383.01102646 0.11480432 392.55255187 0.11350138 402.09408246 C0.11285798 407.60711069 0.11387569 413.12012604 0.11920547 418.63315201 C0.1240421 423.6725819 0.12433689 428.71199014 0.12089889 433.75142099 C0.12047346 435.58186213 0.12176698 437.41230458 0.12488318 439.24274312 C0.12885211 441.7163952 0.12676024 444.18996744 0.12304783 446.66361809 C0.12567484 447.38673689 0.12830186 448.10985569 0.13100848 448.85488719 C0.1141458 453.7717084 0.1141458 453.7717084 -1 456 C-1.66 456 -2.32 456 -3 456 C-4.15458441 457.18014716 -5.3075391 458.36193348 -6.45214844 459.55175781 C-9.35806672 462.27067062 -12.76470897 464.26680143 -16.125 466.375 C-17.26050293 467.09888916 -17.26050293 467.09888916 -18.41894531 467.83740234 C-20.60847996 469.23163307 -22.80298922 470.6175877 -25 472 C-31.51308728 476.10144035 -37.91709745 480.30318142 -44.21777344 484.72387695 C-48.34014821 487.59583098 -52.57091521 490.19680961 -56.91796875 492.7109375 C-59.21897424 494.059232 -59.21897424 494.059232 -61.8125 496.4375 C-64 498 -64 498 -66.63671875 497.59765625 C-67.41660156 497.40042969 -68.19648437 497.20320313 -69 497 C-69.06513126 479.72150447 -69.12948699 462.44300611 -69.19338698 445.164506 C-69.21029337 440.59392303 -69.2272547 436.02334028 -69.24425418 431.45275766 C-69.38000361 394.94189916 -69.50805475 358.43103556 -69.61511412 321.92008069 C-69.62751089 317.70063346 -69.64003363 313.4811866 -69.65255547 309.26173973 C-69.65502971 308.42749156 -69.65750396 307.59324338 -69.66005319 306.73371496 C-69.67251885 302.53109759 -69.6849971 298.32848026 -69.69748628 294.12586296 C-69.70246485 292.4499886 -69.70744323 290.77411425 -69.71242142 289.0982399 C-69.71611574 287.85530018 -69.71611574 287.85530018 -69.7198847 286.58725057 C-69.732324 282.39725881 -69.74468166 278.20726683 -69.75688505 274.01727438 C-69.87026893 235.09498076 -70.01665788 196.17401737 -70.31578565 157.2526195 C-70.40942661 144.9139563 -70.47529075 132.57513797 -70.53548813 120.2362709 C-70.58162996 111.08532621 -70.65516507 101.93543023 -70.76527607 92.78502762 C-70.83595145 86.73037129 -70.87549281 80.67606758 -70.88826931 74.62101257 C-70.89639559 71.25570366 -70.92363135 67.8936436 -70.98199844 64.5286293 C-71.04179041 60.99456555 -71.04694548 57.46462906 -71.03759766 53.93017578 C-71.06838661 52.92401718 -71.09917557 51.91785858 -71.13089752 50.88121033 C-71.06687686 46.56505848 -70.8325917 44.00797456 -68.02860641 40.61333847 C-64.21660547 37.16338572 -60.27538549 34.22983784 -55.625 32 C-50.4034591 29.33399463 -45.86298343 26.10019103 -41.21484375 22.5390625 C-39 21 -39 21 -37 21 C-37 20.34 -37 19.68 -37 19 C-36.27296875 18.73832031 -35.5459375 18.47664063 -34.796875 18.20703125 C-31.94204076 16.97498687 -29.74825291 15.52853278 -27.25 13.6875 C-23.34603883 10.88406201 -19.40811634 8.51153142 -15.1640625 6.26953125 C-12.15447266 4.50397764 -9.55334712 2.32192079 -6.921875 0.0390625 C-4.30799517 -1.37413269 -2.81602813 -0.66847446 0 0 Z " fill="#CDCECE" transform="translate(733,264)"/>
<path d="M0 0 C0.33 0 0.66 0 1 0 C1 3.96 1 7.92 1 12 C0.67 12 0.34 12 0 12 C0 8.04 0 4.08 0 0 Z " fill="#CDCECE" transform="translate(534,647)"/>
<path d="M0 0 C0.33 0 0.66 0 1 0 C1 3.96 1 7.92 1 12 C0.67 12 0.34 12 0 12 C0 8.04 0 4.08 0 0 Z " fill="#CDCECE" transform="translate(534,571)"/>
<path d="M0 0 C1 4 1 4 1 4 Z " fill="#CDCECE" transform="translate(534,595)"/>
<path d="M0 0 C2 1 2 1 2 1 Z " fill="#CDCECE" transform="translate(423,799)"/>
<path d="M0 0 C2 1 2 1 2 1 Z " fill="#CDCECE" transform="translate(529,250)"/>
<path d="M0 0 C2 1 2 1 2 1 Z " fill="#CDCECE" transform="translate(21,176)"/>
<path d="" fill="#CDCECE" transform="translate(0,0)"/>
<path d="" fill="#CDCECE" transform="translate(0,0)"/>
<path d="" fill="#CDCECE" transform="translate(0,0)"/>
<path d="" fill="#CDCECE" transform="translate(0,0)"/>
<path d="" fill="#CDCECE" transform="translate(0,0)"/>
<path d="" fill="#CDCECE" transform="translate(0,0)"/>
<path d="" fill="#CDCECE" transform="translate(0,0)"/>
<path d="" fill="#CDCECE" transform="translate(0,0)"/>
<path d="" fill="#CDCECE" transform="translate(0,0)"/>
<path d="" fill="#CDCECE" transform="translate(0,0)"/>
<path d="" fill="#CDCECE" transform="translate(0,0)"/>
<path d="" fill="#CDCECE" transform="translate(0,0)"/>
<path d="" fill="#CDCECE" transform="translate(0,0)"/>
<path d="" fill="#CDCECE" transform="translate(0,0)"/>
<path d="" fill="#CDCECE" transform="translate(0,0)"/>
<path d="" fill="#CDCECE" transform="translate(0,0)"/>
<path d="" fill="#CDCECE" transform="translate(0,0)"/>
<path d="" fill="#CDCECE" transform="translate(0,0)"/>
<path d="" fill="#CDCECE" transform="translate(0,0)"/>
<path d="" fill="#CDCECE" transform="translate(0,0)"/>
<path d="" fill="#CDCECE" transform="translate(0,0)"/>
<path d="" fill="#CDCECE" transform="translate(0,0)"/>
<path d="" fill="#CDCECE" transform="translate(0,0)"/>
<path d="" fill="#CDCECE" transform="translate(0,0)"/>
<path d="" fill="#CDCECE" transform="translate(0,0)"/>
<path d="" fill="#CDCECE" transform="translate(0,0)"/>
<path d="" fill="#CDCECE" transform="translate(0,0)"/>
<path d="" fill="#CDCECE" transform="translate(0,0)"/>
<path d="" fill="#CDCECE" transform="translate(0,0)"/>
<path d="" fill="#CDCECE" transform="translate(0,0)"/>
<path d="" fill="#CDCECE" transform="translate(0,0)"/>
<path d="" fill="#CDCECE" transform="translate(0,0)"/>
<path d="" fill="#CDCECE" transform="translate(0,0)"/>
<path d="" fill="#CDCECE" transform="translate(0,0)"/>
<path d="" fill="#CDCECE" transform="translate(0,0)"/>
<path d="" fill="#CDCECE" transform="translate(0,0)"/>
<path d="" fill="#CDCECE" transform="translate(0,0)"/>
<path d="" fill="#CDCECE" transform="translate(0,0)"/>
class='group-hover:fill-green-400'
</svg>
